<svg xmlns="http://www.w3.org/2000/svg" viewBox="0 0 100 100">
  <defs>
    <radialGradient id="blueGlow" cx="50%" cy="50%" r="50%" fx="50%" fy="50%">
      <stop offset="0%" style="stop-color:#3B82F6;stop-opacity:0.6" />
      <stop offset="100%" style="stop-color:#3B82F6;stop-opacity:0" />
    </radialGradient>
  </defs>
  <!-- Background Glow -->
  <circle cx="50" cy="50" r="45" fill="url(#blueGlow)" />
  <!-- Database Disks -->
  <ellipse cx="50" cy="35" rx="20" ry="8" fill="none" stroke="#FFFFFF" stroke-width="3" />
  <path d="M30 35 L30 55 C30 60 50 63 70 55 L70 35" fill="none" stroke="#FFFFFF" stroke-width="3" />
  <path d="M30 45 C30 50 50 53 70 45" fill="none" stroke="#FFFFFF" stroke-width="3" />
  <!-- Shield -->
  <path d="M65 65 L65 58 C65 58 70 56 75 56 C75 56 80 58 80 58 L80 65 C80 72 72.5 78 72.5 78 C72.5 78 65 72 65 65" fill="#FFFFFF" />
</svg>
